<svg xmlns="http://www.w3.org/2000/svg"  viewBox="0 0 64 64" width="64px" height="64px"><path fill="#FA6450" d="M55.689,21.286C54.546,21.742,53.303,22,52,22c-5.514,0-10-4.486-10-10c0-1.303,0.258-2.546,0.714-3.688 C39.446,6.831,35.821,6,32,6C17.641,6,6,17.641,6,32c0,3.544,0.712,6.921,1.996,10H20v-8h8v12h4v4v4v0.111 c0,0.927,0.219,1.854,0.634,2.684l0.587,1.174C47.013,57.331,58,45.95,58,32C58,28.179,57.169,24.554,55.689,21.286z"/><path fill="#F0F0F0" d="M51.575,21.979c-5.174-0.219-9.334-4.38-9.553-9.553C39.014,10.879,35.608,10,32,10 c-12.131,0-22,9.869-22,22c0,3.6,0.875,6.997,2.414,10H20v-8h8v12h4v4v4c12.131,0,22-9.869,22-22 C54,28.392,53.121,24.986,51.575,21.979z"/><polygon fill="#505050" points="42,32.5 31.5,32.5 31.5,20 32.5,20 32.5,31.5 42,31.5"/><path fill="#FA6450" d="M32,34L32,34c-1.105,0-2-0.895-2-2v0c0-1.105,0.895-2,2-2h0c1.105,0,2,0.895,2,2v0 C34,33.105,33.105,34,32,34z"/><circle cx="52" cy="12" r="8" fill="#3CC8B4"/><path fill="#1EAA96" d="M46,12c0-4.079,3.055-7.438,7-7.931C52.672,4.028,52.339,4,52,4c-4.418,0-8,3.582-8,8s3.582,8,8,8 c0.339,0,0.672-0.028,1-0.069C49.055,19.438,46,16.079,46,12z"/><polygon fill="#F0F0F0" points="57,10 51,16 47,12 49,10 51,12 55,8"/><rect width="1" height="2" x="31.5" y="12" fill="#505050"/><rect width="2" height="1" x="50" y="31.5" fill="#505050"/><rect width="2" height="1" x="12" y="31.5" fill="#505050"/><rect width="1" height="2" x="44.935" y="44.435" fill="#505050" transform="rotate(-44.98 45.433 45.433)"/><rect width="1" height="2" x="18.065" y="17.565" fill="#505050" transform="rotate(-44.98 18.564 18.564)"/><polygon fill="#505050" points="26,48 26,36 22,36 22,48 18,48 18,52 30,52 30,48"/><rect width="2" height="4" x="18" y="48" fill="#3C3C3C"/><path fill="#FAB400" d="M30.845,57.689C30.289,56.578,30,55.353,30,54.111V52H18v2.111c0,1.242-0.289,2.467-0.845,3.578L16,60h16 L30.845,57.689z"/><path fill="#DC9600" d="M20,54.111V52h-2v2.111c0,1.242-0.289,2.467-0.845,3.578L16,60h2l1.155-2.311 C19.711,56.578,20,55.353,20,54.111z"/><rect width="1" height="6" x="21.5" y="54" fill="#505050"/><rect width="1" height="6" x="25.5" y="54" fill="#505050"/><rect width="2" height="12" x="22" y="36" fill="#3C3C3C"/><path fill="#FA6450" d="M16,54.111V54v-4v-2H6l1.721,10.329C7.882,59.293,8.717,60,9.694,60h4.069l1.603-3.205 C15.781,55.966,16,55.038,16,54.111z"/><path fill="#DC4632" d="M9.721,58.329L8,48H6l1.721,10.329C7.882,59.293,8.717,60,9.694,60h2 C10.717,60,9.882,59.293,9.721,58.329z"/><path fill="#DC4632" d="M33.211,57.949c0.262-0.014,0.528-0.013,0.789-0.033c-0.285-0.022-0.566-0.054-0.848-0.085 L33.211,57.949z"/><path fill="#DC4632" d="M12,42c-1.285-3.079-2-6.455-2-10C10,18.314,20.576,7.106,34,6.084C33.339,6.034,32.674,6,32,6 C17.641,6,6,17.641,6,32c0,3.544,0.712,6.921,1.996,10H12z"/><g><path fill="#BE2814" d="M18,46h2v-2H6c-1.105,0-2,0.895-2,2c0,1.104,0.895,2,2,2h10v-2H18z"/></g></svg>